<svg width="39" height="30" viewBox="0 0 39 30" fill="none" xmlns="http://www.w3.org/2000/svg">
<path d="M11.7 15C15.472 15 18.525 11.6451 18.525 7.5C18.525 3.35491 15.472 0 11.7 0C7.92797 0 4.875 3.35491 4.875 7.5C4.875 11.6451 7.92797 15 11.7 15ZM16.38 17.1429H15.8742C14.6067 17.8125 13.1991 18.2143 11.7 18.2143C10.2009 18.2143 8.79937 17.8125 7.52578 17.1429H7.02C3.14437 17.1429 0 20.5982 0 24.8571V26.7857C0 28.5603 1.31016 30 2.925 30H20.475C22.0898 30 23.4 28.5603 23.4 26.7857V24.8571C23.4 20.5982 20.2556 17.1429 16.38 17.1429ZM29.25 15C32.4797 15 35.1 12.1205 35.1 8.57143C35.1 5.02232 32.4797 2.14286 29.25 2.14286C26.0203 2.14286 23.4 5.02232 23.4 8.57143C23.4 12.1205 26.0203 15 29.25 15ZM32.175 17.1429H31.9434C31.0964 17.4643 30.2006 17.6786 29.25 17.6786C28.2994 17.6786 27.4036 17.4643 26.5566 17.1429H26.325C25.0819 17.1429 23.9362 17.5379 22.9308 18.1741C24.4177 19.9353 25.35 22.2723 25.35 24.8571V27.4286C25.35 27.5759 25.3195 27.7165 25.3134 27.8571H36.075C37.6898 27.8571 39 26.4174 39 24.6429C39 20.4978 35.947 17.1429 32.175 17.1429Z" fill="black"/>
</svg>
