<svg width="34" height="34" viewBox="0 0 34 34" fill="none" xmlns="http://www.w3.org/2000/svg">
<path d="M31.3353 23.632C29.1485 21.3654 27.6046 20.2115 27.6046 13.9627C27.6046 8.24039 24.1542 6.20168 21.3142 5.21154C20.937 5.08029 20.5819 4.77885 20.4669 4.45072C19.9688 3.0149 18.5722 1.75 16.7159 1.75C14.8595 1.75 13.4621 3.01563 12.969 4.45216C12.8541 4.78389 12.499 5.08029 12.1217 5.21154C9.27842 6.20312 5.83134 8.23462 5.83134 13.9627C5.82708 20.2115 4.28322 21.3654 2.09644 23.632C1.19039 24.5709 1.98404 25.9808 3.56877 25.9808H29.8715C31.4477 25.9808 32.2362 24.5666 31.3353 23.632ZM22.1658 25.9808V27.1346C22.1658 28.3587 21.5916 29.5326 20.5695 30.3982C19.5475 31.2637 18.1613 31.75 16.7159 31.75C15.2705 31.75 13.8842 31.2637 12.8622 30.3982C11.8401 29.5326 11.2659 28.3587 11.2659 27.1346V25.9808" fill="black"/>
<path d="M22.1658 25.9808V27.1346C22.1658 28.3587 21.5916 29.5326 20.5695 30.3982C19.5475 31.2637 18.1613 31.75 16.7159 31.75C15.2705 31.75 13.8842 31.2637 12.8622 30.3982C11.8401 29.5326 11.2659 28.3587 11.2659 27.1346V25.9808M31.3353 23.632C29.1485 21.3654 27.6046 20.2115 27.6046 13.9627C27.6046 8.24039 24.1542 6.20168 21.3142 5.21154C20.937 5.08029 20.5819 4.77885 20.4669 4.45072C19.9688 3.0149 18.5722 1.75 16.7159 1.75C14.8595 1.75 13.4621 3.01563 12.969 4.45216C12.8541 4.78389 12.499 5.08029 12.1217 5.21154C9.27842 6.20312 5.83134 8.23462 5.83134 13.9627C5.82708 20.2115 4.28322 21.3654 2.09644 23.632C1.19039 24.5709 1.98404 25.9808 3.56877 25.9808H29.8715C31.4477 25.9808 32.2362 24.5666 31.3353 23.632Z" stroke="black" stroke-width="3" stroke-linecap="round" stroke-linejoin="round"/>
</svg>
